<!-- Generator: Adobe Illustrator 21.0.0, SVG Export Plug-In  -->
<svg version="1.1"
	 xmlns="http://www.w3.org/2000/svg" xmlns:xlink="http://www.w3.org/1999/xlink" xmlns:a="http://ns.adobe.com/AdobeSVGViewerExtensions/3.0/"
	 x="0px" y="0px" width="191px" height="160.2px" viewBox="0 0 191 160.2" enable-background="new 0 0 191 160.2"
	 xml:space="preserve">
<defs>
</defs>
<circle fill="#4AA6C0" stroke="#4AA6C0" stroke-miterlimit="10" cx="8.2" cy="8.2" r="7.8"/>
<circle fill="#4AA6C0" stroke="#4AA6C0" stroke-miterlimit="10" cx="30" cy="33" r="7.8"/>
<circle fill="#4AA6C0" stroke="#4AA6C0" stroke-miterlimit="10" cx="51.4" cy="72.3" r="7.8"/>
<circle fill="#4AA6C0" stroke="#4AA6C0" stroke-miterlimit="10" cx="71" cy="119.5" r="7.8"/>
<circle fill="#4AA6C0" stroke="#4AA6C0" stroke-miterlimit="10" cx="92.3" cy="128.5" r="7.8"/>
<circle fill="#4AA6C0" stroke="#4AA6C0" stroke-miterlimit="10" cx="114.8" cy="136.5" r="7.8"/>
<circle fill="#4AA6C0" stroke="#4AA6C0" stroke-miterlimit="10" cx="136.3" cy="143.3" r="7.8"/>
<circle fill="#4AA6C0" stroke="#4AA6C0" stroke-miterlimit="10" cx="158.4" cy="151.1" r="7.8"/>
<circle fill="#4AA6C0" stroke="#4AA6C0" stroke-miterlimit="10" cx="180.5" cy="149.2" r="7.8"/>
<line fill="#4AA6C0" stroke="#4AA6C0" stroke-miterlimit="10" x1="8.2" y1="8.2" x2="30" y2="33"/>
<line fill="#4AA6C0" stroke="#4AA6C0" stroke-miterlimit="10" x1="51.4" y1="72.3" x2="30" y2="33"/>
<line fill="#4AA6C0" stroke="#4AA6C0" stroke-miterlimit="10" x1="71" y1="119.5" x2="51.4" y2="72.3"/>
<line fill="#4AA6C0" stroke="#4AA6C0" stroke-miterlimit="10" x1="92.9" y1="129.1" x2="68.3" y2="120.2"/>
<line fill="#4AA6C0" stroke="#4AA6C0" stroke-miterlimit="10" x1="114.8" y1="136.5" x2="92.9" y2="129.1"/>
<line fill="#4AA6C0" stroke="#4AA6C0" stroke-miterlimit="10" x1="136.3" y1="143.3" x2="114.8" y2="136.5"/>
<line fill="#4AA6C0" stroke="#4AA6C0" stroke-miterlimit="10" x1="158.4" y1="151.1" x2="136.3" y2="143.3"/>
<line fill="#4AA6C0" stroke="#4AA6C0" stroke-miterlimit="10" x1="180.5" y1="149.2" x2="158.4" y2="151.1"/>
<rect x="3" y="4.5" fill="none" width="13" height="12.6"/>
<text transform="matrix(1 0 0 1 3 11.5995)" font-family="'MyriadPro-Regular'" font-size="10px">21</text>
<rect x="25.1" y="28.9" fill="none" width="13" height="12.6"/>
<text transform="matrix(1 0 0 1 25.0531 36.0056)" font-family="'MyriadPro-Regular'" font-size="10px">22</text>
<rect x="46.4" y="68.6" fill="none" width="13" height="12.6"/>
<text transform="matrix(1 0 0 1 46.4149 75.6829)" font-family="'MyriadPro-Regular'" font-size="10px">23</text>
<rect x="66" y="116.2" fill="none" width="13" height="12.6"/>
<text transform="matrix(1 0 0 1 65.9587 123.3429)" font-family="'MyriadPro-Regular'" font-size="10px">24</text>
<rect x="89.8" y="125.3" fill="none" width="13" height="12.6"/>
<text transform="matrix(1 0 0 1 89.8489 132.4267)" font-family="'MyriadPro-Regular'" font-size="10px">1</text>
<rect x="112.5" y="132.5" fill="none" width="13" height="12.6"/>
<text transform="matrix(1 0 0 1 112.5489 139.6267)" font-family="'MyriadPro-Regular'" font-size="10px">2</text>
<rect x="133.8" y="139.6" fill="none" width="13" height="12.6"/>
<text transform="matrix(1 0 0 1 133.8406 146.6517)" font-family="'MyriadPro-Regular'" font-size="10px">3</text>
<rect x="155.9" y="147.6" fill="none" width="13" height="12.6"/>
<text transform="matrix(1 0 0 1 155.9422 154.7017)" font-family="'MyriadPro-Regular'" font-size="10px">4</text>
<rect x="178" y="145.3" fill="none" width="13" height="12.6"/>
<text transform="matrix(1 0 0 1 178.0281 152.4017)" font-family="'MyriadPro-Regular'" font-size="10px">5</text>
</svg>
