<!-- Generator: Adobe Illustrator 21.0.0, SVG Export Plug-In  -->
<svg version="1.1"
	 xmlns="http://www.w3.org/2000/svg" xmlns:xlink="http://www.w3.org/1999/xlink" xmlns:a="http://ns.adobe.com/AdobeSVGViewerExtensions/3.0/"
	 x="0px" y="0px" width="323.4px" height="258.5px" viewBox="0 0 323.4 258.5" enable-background="new 0 0 323.4 258.5"
	 xml:space="preserve">
<defs>
</defs>
<circle fill="#EFD229" stroke="#EFD229" stroke-miterlimit="10" cx="8.2" cy="250.2" r="7.8"/>
<circle fill="#EFD229" stroke="#EFD229" stroke-miterlimit="10" cx="30.3" cy="234.1" r="7.8"/>
<circle fill="#EFD229" stroke="#EFD229" stroke-miterlimit="10" cx="52.1" cy="209.5" r="7.8"/>
<circle fill="#EFD229" stroke="#EFD229" stroke-miterlimit="10" cx="74.4" cy="194.6" r="7.8"/>
<circle fill="#EFD229" stroke="#EFD229" stroke-miterlimit="10" cx="95.3" cy="167.3" r="7.8"/>
<circle fill="#EFD229" stroke="#EFD229" stroke-miterlimit="10" cx="116.7" cy="151.5" r="7.8"/>
<circle fill="#EFD229" stroke="#EFD229" stroke-miterlimit="10" cx="140" cy="135.2" r="7.8"/>
<circle fill="#EFD229" stroke="#EFD229" stroke-miterlimit="10" cx="162" cy="151.5" r="7.8"/>
<circle fill="#EFD229" stroke="#EFD229" stroke-miterlimit="10" cx="184.5" cy="143.8" r="7.8"/>
<circle fill="#EFD229" stroke="#EFD229" stroke-miterlimit="10" cx="205.9" cy="136" r="7.8"/>
<circle fill="#EFD229" stroke="#EFD229" stroke-miterlimit="10" cx="227.5" cy="127.5" r="7.8"/>
<circle fill="#EFD229" stroke="#EFD229" stroke-miterlimit="10" cx="248.7" cy="99" r="7.8"/>
<circle fill="#EFD229" stroke="#EFD229" stroke-miterlimit="10" cx="271.9" cy="16" r="7.8"/>
<circle fill="#EFD229" stroke="#EFD229" stroke-miterlimit="10" cx="293.6" cy="8.2" r="7.8"/>
<circle fill="#EFD229" stroke="#EFD229" stroke-miterlimit="10" cx="315.2" cy="51" r="7.8"/>
<line fill="#EFD229" stroke="#EFD229" stroke-miterlimit="10" x1="30.3" y1="234.1" x2="8.2" y2="250.2"/>
<line fill="#EFD229" stroke="#EFD229" stroke-miterlimit="10" x1="52.1" y1="209.5" x2="30.3" y2="234.1"/>
<line fill="#EFD229" stroke="#EFD229" stroke-miterlimit="10" x1="74.4" y1="194.6" x2="52.1" y2="209.5"/>
<line fill="#EFD229" stroke="#EFD229" stroke-miterlimit="10" x1="95.3" y1="167.3" x2="74.4" y2="194.6"/>
<line fill="#EFD229" stroke="#EFD229" stroke-miterlimit="10" x1="116.7" y1="151.5" x2="95.3" y2="167.3"/>
<line fill="#EFD229" stroke="#EFD229" stroke-miterlimit="10" x1="140" y1="135.2" x2="116.7" y2="151.5"/>
<line fill="#EFD229" stroke="#EFD229" stroke-miterlimit="10" x1="162" y1="151.5" x2="140" y2="135.2"/>
<line fill="#EFD229" stroke="#EFD229" stroke-miterlimit="10" x1="184.5" y1="143.8" x2="162" y2="151.5"/>
<line fill="#EFD229" stroke="#EFD229" stroke-miterlimit="10" x1="205.9" y1="136" x2="184.5" y2="143.8"/>
<line fill="#EFD229" stroke="#EFD229" stroke-miterlimit="10" x1="227.5" y1="127.5" x2="205.9" y2="136"/>
<line fill="#EFD229" stroke="#EFD229" stroke-miterlimit="10" x1="248.7" y1="99" x2="227.5" y2="127.5"/>
<line fill="#EFD229" stroke="#EFD229" stroke-miterlimit="10" x1="271.9" y1="16" x2="248.7" y2="99"/>
<line fill="#EFD229" stroke="#EFD229" stroke-miterlimit="10" x1="293.6" y1="8.2" x2="271.9" y2="16"/>
<line fill="#EFD229" stroke="#EFD229" stroke-miterlimit="10" x1="315.2" y1="51" x2="293.6" y2="8.2"/>
</svg>
