<!-- Generator: Adobe Illustrator 21.0.0, SVG Export Plug-In  -->
<svg version="1.1"
	 xmlns="http://www.w3.org/2000/svg" xmlns:xlink="http://www.w3.org/1999/xlink" xmlns:a="http://ns.adobe.com/AdobeSVGViewerExtensions/3.0/"
	 x="0px" y="0px" width="315.5px" height="250.6px" viewBox="0 0 315.5 250.6" enable-background="new 0 0 315.5 250.6"
	 xml:space="preserve">
<defs>
</defs>
<circle fill="#9E0A0A" stroke="#9E0A0A" stroke-miterlimit="10" cx="22.3" cy="234.1" r="7.8"/>
<circle fill="#9E0A0A" stroke="#9E0A0A" stroke-miterlimit="10" cx="44.1" cy="209.5" r="7.8"/>
<circle fill="#9E0A0A" stroke="#9E0A0A" stroke-miterlimit="10" cx="66.4" cy="194.6" r="7.8"/>
<circle fill="#9E0A0A" stroke="#9E0A0A" stroke-miterlimit="10" cx="87.3" cy="167.3" r="7.8"/>
<circle fill="#9E0A0A" stroke="#9E0A0A" stroke-miterlimit="10" cx="108.8" cy="151.5" r="7.8"/>
<circle fill="#9E0A0A" stroke="#9E0A0A" stroke-miterlimit="10" cx="132" cy="135.2" r="7.8"/>
<circle fill="#9E0A0A" stroke="#9E0A0A" stroke-miterlimit="10" cx="154.1" cy="151.5" r="7.8"/>
<circle fill="#9E0A0A" stroke="#9E0A0A" stroke-miterlimit="10" cx="176.6" cy="143.8" r="7.8"/>
<circle fill="#9E0A0A" stroke="#9E0A0A" stroke-miterlimit="10" cx="197.9" cy="136" r="7.8"/>
<circle fill="#9E0A0A" stroke="#9E0A0A" stroke-miterlimit="10" cx="219.6" cy="127.5" r="7.8"/>
<circle fill="#9E0A0A" stroke="#9E0A0A" stroke-miterlimit="10" cx="240.7" cy="99" r="7.8"/>
<circle fill="#9E0A0A" stroke="#9E0A0A" stroke-miterlimit="10" cx="263.9" cy="16" r="7.8"/>
<circle fill="#9E0A0A" stroke="#9E0A0A" stroke-miterlimit="10" cx="285.6" cy="8.2" r="7.8"/>
<circle fill="#9E0A0A" stroke="#9E0A0A" stroke-miterlimit="10" cx="307.2" cy="51" r="7.8"/>
<line fill="#9E0A0A" stroke="#9E0A0A" stroke-miterlimit="10" x1="22.3" y1="234.1" x2="0.3" y2="250.2"/>
<line fill="#9E0A0A" stroke="#9E0A0A" stroke-miterlimit="10" x1="44.1" y1="209.5" x2="22.3" y2="234.1"/>
<line fill="#9E0A0A" stroke="#9E0A0A" stroke-miterlimit="10" x1="66.4" y1="194.6" x2="44.1" y2="209.5"/>
<line fill="#9E0A0A" stroke="#9E0A0A" stroke-miterlimit="10" x1="87.3" y1="167.3" x2="66.4" y2="194.6"/>
<line fill="#9E0A0A" stroke="#9E0A0A" stroke-miterlimit="10" x1="108.8" y1="151.5" x2="87.3" y2="167.3"/>
<line fill="#9E0A0A" stroke="#9E0A0A" stroke-miterlimit="10" x1="132" y1="135.2" x2="108.8" y2="151.5"/>
<line fill="#9E0A0A" stroke="#9E0A0A" stroke-miterlimit="10" x1="154.1" y1="151.5" x2="132" y2="135.2"/>
<line fill="#9E0A0A" stroke="#9E0A0A" stroke-miterlimit="10" x1="176.6" y1="143.8" x2="154.1" y2="151.5"/>
<line fill="#9E0A0A" stroke="#9E0A0A" stroke-miterlimit="10" x1="197.9" y1="136" x2="176.6" y2="143.8"/>
<line fill="#9E0A0A" stroke="#9E0A0A" stroke-miterlimit="10" x1="219.6" y1="127.5" x2="197.9" y2="136"/>
<line fill="#9E0A0A" stroke="#9E0A0A" stroke-miterlimit="10" x1="240.7" y1="99" x2="219.6" y2="127.5"/>
<line fill="#9E0A0A" stroke="#9E0A0A" stroke-miterlimit="10" x1="263.9" y1="16" x2="240.7" y2="99"/>
<line fill="#9E0A0A" stroke="#9E0A0A" stroke-miterlimit="10" x1="285.6" y1="8.2" x2="263.9" y2="16"/>
<line fill="#9E0A0A" stroke="#9E0A0A" stroke-miterlimit="10" x1="307.2" y1="51" x2="285.6" y2="8.2"/>
</svg>
