<!-- Generator: Adobe Illustrator 21.0.0, SVG Export Plug-In  -->
<svg version="1.1"
	 xmlns="http://www.w3.org/2000/svg" xmlns:xlink="http://www.w3.org/1999/xlink" xmlns:a="http://ns.adobe.com/AdobeSVGViewerExtensions/3.0/"
	 x="0px" y="0px" width="188.8px" height="159.3px" viewBox="0 0 188.8 159.3" enable-background="new 0 0 188.8 159.3"
	 xml:space="preserve">
<defs>
</defs>
<circle fill="#4AA6C0" stroke="#4AA6C0" stroke-miterlimit="10" cx="8.2" cy="8.2" r="7.8"/>
<circle fill="#4AA6C0" stroke="#4AA6C0" stroke-miterlimit="10" cx="30" cy="33" r="7.8"/>
<circle fill="#4AA6C0" stroke="#4AA6C0" stroke-miterlimit="10" cx="51.4" cy="72.3" r="7.8"/>
<circle fill="#4AA6C0" stroke="#4AA6C0" stroke-miterlimit="10" cx="71" cy="119.5" r="7.8"/>
<circle fill="#4AA6C0" stroke="#4AA6C0" stroke-miterlimit="10" cx="92.3" cy="128.5" r="7.8"/>
<circle fill="#4AA6C0" stroke="#4AA6C0" stroke-miterlimit="10" cx="114.8" cy="136.5" r="7.8"/>
<circle fill="#4AA6C0" stroke="#4AA6C0" stroke-miterlimit="10" cx="136.3" cy="143.3" r="7.8"/>
<circle fill="#4AA6C0" stroke="#4AA6C0" stroke-miterlimit="10" cx="158.4" cy="151.1" r="7.8"/>
<circle fill="#4AA6C0" stroke="#4AA6C0" stroke-miterlimit="10" cx="180.5" cy="149.2" r="7.8"/>
<line fill="#4AA6C0" stroke="#4AA6C0" stroke-miterlimit="10" x1="8.2" y1="8.2" x2="30" y2="33"/>
<line fill="#4AA6C0" stroke="#4AA6C0" stroke-miterlimit="10" x1="51.4" y1="72.3" x2="30" y2="33"/>
<line fill="#4AA6C0" stroke="#4AA6C0" stroke-miterlimit="10" x1="71" y1="119.5" x2="51.4" y2="72.3"/>
<line fill="#4AA6C0" stroke="#4AA6C0" stroke-miterlimit="10" x1="92.9" y1="129.1" x2="68.3" y2="120.2"/>
<line fill="#4AA6C0" stroke="#4AA6C0" stroke-miterlimit="10" x1="114.8" y1="136.5" x2="92.9" y2="129.1"/>
<line fill="#4AA6C0" stroke="#4AA6C0" stroke-miterlimit="10" x1="136.3" y1="143.3" x2="114.8" y2="136.5"/>
<line fill="#4AA6C0" stroke="#4AA6C0" stroke-miterlimit="10" x1="158.4" y1="151.1" x2="136.3" y2="143.3"/>
<line fill="#4AA6C0" stroke="#4AA6C0" stroke-miterlimit="10" x1="180.5" y1="149.2" x2="158.4" y2="151.1"/>
</svg>
